<svg width="495" height="208" viewBox="0 0 495 208" xmlns="http://www.w3.org/2000/svg">
  <rect width="495" height="208" rx="10" fill="#1a1b27" stroke="#414868" stroke-width="1"/>
  <text x="25" y="35" font-family="Segoe UI,sans-serif" font-size="18" font-weight="bold" fill="#70a5fd">💻 Most Used Languages</text>
  <line x1="25" y1="48" x2="470" y2="48" stroke="#414868" stroke-width="1"/>
  <rect x="25" y="60" width="385.9" height="12" rx="3" fill="#3572A5"/><rect x="410.9357846814323" y="60" width="10.8" height="12" rx="3" fill="#663399"/><rect x="421.7796585673181" y="60" width="10.0" height="12" rx="3" fill="#e34c26"/><rect x="431.7399784429017" y="60" width="9.1" height="12" rx="3" fill="#b07219"/><rect x="440.88714991343574" y="60" width="2.0" height="12" rx="3" fill="#c6538c"/><rect x="442.8730838558911" y="60" width="1.1" height="12" rx="3" fill="#3178c6"/><rect x="443.93113433288516" y="60" width="0.5" height="12" rx="3" fill="#f1e05a"/><rect x="444.42063924226494" y="60" width="0.4" height="12" rx="3" fill="#012456"/>
  <circle cx="31" cy="111" r="6" fill="#3572A5"/><text x="41" y="115" font-family="Segoe UI,sans-serif" font-size="12" fill="#a9b1d6">Python 91.9%</text><circle cx="251" cy="111" r="6" fill="#663399"/><text x="261" y="115" font-family="Segoe UI,sans-serif" font-size="12" fill="#a9b1d6">CSS 2.6%</text><circle cx="31" cy="133" r="6" fill="#e34c26"/><text x="41" y="137" font-family="Segoe UI,sans-serif" font-size="12" fill="#a9b1d6">HTML 2.4%</text><circle cx="251" cy="133" r="6" fill="#b07219"/><text x="261" y="137" font-family="Segoe UI,sans-serif" font-size="12" fill="#a9b1d6">Java 2.2%</text><circle cx="31" cy="155" r="6" fill="#c6538c"/><text x="41" y="159" font-family="Segoe UI,sans-serif" font-size="12" fill="#a9b1d6">SCSS 0.5%</text><circle cx="251" cy="155" r="6" fill="#3178c6"/><text x="261" y="159" font-family="Segoe UI,sans-serif" font-size="12" fill="#a9b1d6">TypeScript 0.3%</text><circle cx="31" cy="177" r="6" fill="#f1e05a"/><text x="41" y="181" font-family="Segoe UI,sans-serif" font-size="12" fill="#a9b1d6">JavaScript 0.1%</text><circle cx="251" cy="177" r="6" fill="#012456"/><text x="261" y="181" font-family="Segoe UI,sans-serif" font-size="12" fill="#a9b1d6">PowerShell 0.1%</text>
</svg>